<?xml version="1.0" encoding="UTF-8" standalone="no"?>
<!DOCTYPE svg PUBLIC "-//W3C//DTD SVG 1.1//EN" "http://www.w3.org/Graphics/SVG/1.1/DTD/svg11.dtd">
<!-- Created with Vectornator (http://vectornator.io/) -->
<svg height="256.0px" stroke-miterlimit="10" style="fill-rule:nonzero;clip-rule:evenodd;stroke-linecap:round;stroke-linejoin:round;" version="1.1" viewBox="0 0 256 256" width="256.0px" xml:space="preserve" xmlns="http://www.w3.org/2000/svg" xmlns:xlink="http://www.w3.org/1999/xlink">
<defs/>
<g id="Layer-1">
<path d="M38 62C38 48.7452 48.7452 38 62 38L194 38C207.255 38 218 48.7452 218 62L218 194C218 207.255 207.255 218 194 218L62 218C48.7452 218 38 207.255 38 194L38 62Z" fill="#e7ecb3" fill-rule="nonzero" opacity="1" stroke="none"/>
<path d="M38 175.5L218 175.5" fill="none" opacity="1" stroke="#49543f" stroke-linecap="butt" stroke-linejoin="round" stroke-width="10"/>
<path d="M38 128L218 128" fill="none" opacity="1" stroke="#49543f" stroke-linecap="butt" stroke-linejoin="round" stroke-width="10"/>
<path d="M38 80.5L218 80.5" fill="none" opacity="1" stroke="#49543f" stroke-linecap="butt" stroke-linejoin="round" stroke-width="10"/>
<g opacity="1">
<path d="M247.479 40.4636C249.39 41.5666 250.049 44.0113 248.943 45.9268L204.33 137.63L157.385 109.99L211.995 24.5949C213.101 22.6794 215.543 22.0252 217.458 23.1311L247.479 40.4636ZM153.86 196.32C153.621 196.384 153.394 196.403 153.137 196.369L129.74 193.726C129.094 193.651 128.515 193.251 128.207 192.659C127.917 192.057 127.929 191.358 128.259 190.781L139.929 170.15C140.185 169.7 140.606 169.372 141.097 169.241L141.097 169.241C141.603 169.105 142.132 169.179 142.579 169.44L161.25 180.438C162.185 180.978 162.511 182.192 161.969 183.123L155.023 195.42C154.768 195.874 154.343 196.19 153.86 196.32Z" fill="#cddc39" fill-rule="nonzero" opacity="1" stroke="none"/>
<path d="M135.777 169.834L143.717 155.867L147.65 127.32L194.537 154.897L171.981 172.515L164.068 186.474L135.777 169.834Z" fill="#37474f" fill-rule="nonzero" opacity="1" stroke="none"/>
<path d="M147.65 127.32L194.541 154.895L204.33 137.63L157.385 109.99L147.65 127.32Z" fill="#689f38" fill-rule="nonzero" opacity="1" stroke="none"/>
</g>
<path d="M80.5 218L80.5 38" fill="none" opacity="1" stroke="#49543f" stroke-linecap="butt" stroke-linejoin="round" stroke-opacity="0.5" stroke-width="10"/>
</g>
</svg>
